<?xml version="1.0" encoding="UTF-8"?><svg xmlns="http://www.w3.org/2000/svg" xmlns:xlink="http://www.w3.org/1999/xlink" fill-opacity="1" color-rendering="auto" color-interpolation="auto" text-rendering="auto" stroke="black" stroke-linecap="square" width="690" stroke-miterlimit="10" shape-rendering="auto" stroke-opacity="1" fill="black" stroke-dasharray="none" font-weight="normal" stroke-width="1" height="390" font-family="'Dialog'" font-style="normal" stroke-linejoin="miter" font-size="12px" stroke-dashoffset="0" image-rendering="auto">
  <!--Generated by ySVG 2.6-->
  <defs id="genericDefs"/>
  <g>
    <defs id="defs1">
      <clipPath clipPathUnits="userSpaceOnUse" id="clipPath1">
        <path d="M0 0 L690 0 L690 390 L0 390 L0 0 Z"/>
      </clipPath>
      <clipPath clipPathUnits="userSpaceOnUse" id="clipPath2">
        <path d="M-2547 -559 L-1857 -559 L-1857 -169 L-2547 -169 L-2547 -559 Z"/>
      </clipPath>
    </defs>
    <g text-rendering="geometricPrecision" shape-rendering="geometricPrecision" transform="translate(2547,559)">
      <rect x="-2547" width="690" height="390" y="-559" clip-path="url(#clipPath2)" stroke="none"/>
    </g>
    <g fill="rgb(153,51,0)" text-rendering="geometricPrecision" shape-rendering="geometricPrecision" transform="matrix(1,0,0,1,2547,559)" stroke="rgb(153,51,0)">
      <rect x="-2227.4023" y="-220" clip-path="url(#clipPath2)" width="67.7188" rx="4" ry="4" height="36" stroke="none"/>
    </g>
    <g stroke-linecap="butt" transform="matrix(1,0,0,1,2547,559)" fill="rgb(204,204,204)" text-rendering="geometricPrecision" shape-rendering="geometricPrecision" stroke="rgb(204,204,204)" stroke-width="2" stroke-miterlimit="1.45">
      <rect x="-2227.4023" y="-220" clip-path="url(#clipPath2)" fill="none" width="67.7188" rx="4" ry="4" height="36"/>
      <text x="-2215.4023" font-size="16px" y="-195.6484" clip-path="url(#clipPath2)" font-family="'Tahoma'" stroke="none" stroke-width="1" xml:space="preserve">Folder</text>
    </g>
    <g fill="rgb(0,102,0)" text-rendering="geometricPrecision" shape-rendering="geometricPrecision" transform="matrix(1,0,0,1,2547,559)" stroke="rgb(0,102,0)">
      <rect x="-2335.8555" y="-220" clip-path="url(#clipPath2)" width="98.4531" rx="4" ry="4" height="36" stroke="none"/>
    </g>
    <g stroke-linecap="butt" transform="matrix(1,0,0,1,2547,559)" fill="rgb(204,204,204)" text-rendering="geometricPrecision" shape-rendering="geometricPrecision" stroke="rgb(204,204,204)" stroke-width="2" stroke-miterlimit="1.45">
      <rect x="-2335.8555" y="-220" clip-path="url(#clipPath2)" fill="none" width="98.4531" rx="4" ry="4" height="36"/>
      <text x="-2323.8555" font-size="16px" y="-195.6484" clip-path="url(#clipPath2)" font-family="'Tahoma'" stroke="none" stroke-width="1" xml:space="preserve">Repository</text>
    </g>
    <g fill="rgb(102,0,51)" text-rendering="geometricPrecision" shape-rendering="geometricPrecision" transform="matrix(1,0,0,1,2547,559)" stroke="rgb(102,0,51)">
      <rect x="-2531.3789" y="-468" clip-path="url(#clipPath2)" width="189.0312" rx="4" ry="4" height="36" stroke="none"/>
    </g>
    <g stroke-linecap="butt" transform="matrix(1,0,0,1,2547,559)" fill="rgb(204,204,204)" text-rendering="geometricPrecision" shape-rendering="geometricPrecision" stroke="rgb(204,204,204)" stroke-width="2" stroke-miterlimit="1.45">
      <rect x="-2531.3789" y="-468" clip-path="url(#clipPath2)" fill="none" width="189.0312" rx="4" ry="4" height="36"/>
      <text x="-2519.3789" font-size="16px" y="-443.6484" clip-path="url(#clipPath2)" font-family="'Tahoma'" stroke="none" stroke-width="1" xml:space="preserve">TextEncoderApplication</text>
    </g>
    <g fill="rgb(0,51,102)" text-rendering="geometricPrecision" shape-rendering="geometricPrecision" transform="matrix(1,0,0,1,2547,559)" stroke="rgb(0,51,102)">
      <rect x="-2302.3477" y="-468" clip-path="url(#clipPath2)" width="107.8359" rx="4" ry="4" height="36" stroke="none"/>
    </g>
    <g stroke-linecap="butt" transform="matrix(1,0,0,1,2547,559)" fill="rgb(204,204,204)" text-rendering="geometricPrecision" shape-rendering="geometricPrecision" stroke="rgb(204,204,204)" stroke-width="2" stroke-miterlimit="1.45">
      <rect x="-2302.3477" y="-468" clip-path="url(#clipPath2)" fill="none" width="107.8359" rx="4" ry="4" height="36"/>
      <text x="-2290.3477" font-size="16px" y="-443.6484" clip-path="url(#clipPath2)" font-family="'Tahoma'" stroke="none" stroke-width="1" xml:space="preserve">MainService</text>
    </g>
    <g fill="rgb(0,51,102)" text-rendering="geometricPrecision" shape-rendering="geometricPrecision" transform="matrix(1,0,0,1,2547,559)" stroke="rgb(0,51,102)">
      <rect x="-2302.3477" y="-392" clip-path="url(#clipPath2)" width="131.5312" rx="4" ry="4" height="36" stroke="none"/>
    </g>
    <g stroke-linecap="butt" transform="matrix(1,0,0,1,2547,559)" fill="rgb(204,204,204)" text-rendering="geometricPrecision" shape-rendering="geometricPrecision" stroke="rgb(204,204,204)" stroke-width="2" stroke-miterlimit="1.45">
      <rect x="-2302.3477" y="-392" clip-path="url(#clipPath2)" fill="none" width="131.5312" rx="4" ry="4" height="36"/>
      <text x="-2290.3477" font-size="16px" y="-367.6484" clip-path="url(#clipPath2)" font-family="'Tahoma'" stroke="none" stroke-width="1" xml:space="preserve">EncoderService</text>
    </g>
    <g fill="rgb(0,51,102)" text-rendering="geometricPrecision" shape-rendering="geometricPrecision" transform="matrix(1,0,0,1,2547,559)" stroke="rgb(0,51,102)">
      <rect x="-2130.8164" y="-392" clip-path="url(#clipPath2)" width="98.6094" rx="4" ry="4" height="36" stroke="none"/>
    </g>
    <g stroke-linecap="butt" transform="matrix(1,0,0,1,2547,559)" fill="rgb(204,204,204)" text-rendering="geometricPrecision" shape-rendering="geometricPrecision" stroke="rgb(204,204,204)" stroke-width="2" stroke-miterlimit="1.45">
      <rect x="-2130.8164" y="-392" clip-path="url(#clipPath2)" fill="none" width="98.6094" rx="4" ry="4" height="36"/>
      <text x="-2118.8164" font-size="16px" y="-367.6484" clip-path="url(#clipPath2)" font-family="'Tahoma'" stroke="none" stroke-width="1" xml:space="preserve">FileService</text>
    </g>
    <g fill="rgb(0,51,102)" text-rendering="geometricPrecision" shape-rendering="geometricPrecision" transform="matrix(1,0,0,1,2547,559)" stroke="rgb(0,51,102)">
      <rect x="-2154.5117" y="-468" clip-path="url(#clipPath2)" width="107.0469" rx="4" ry="4" height="36" stroke="none"/>
    </g>
    <g stroke-linecap="butt" transform="matrix(1,0,0,1,2547,559)" fill="rgb(204,204,204)" text-rendering="geometricPrecision" shape-rendering="geometricPrecision" stroke="rgb(204,204,204)" stroke-width="2" stroke-miterlimit="1.45">
      <rect x="-2154.5117" y="-468" clip-path="url(#clipPath2)" fill="none" width="107.0469" rx="4" ry="4" height="36"/>
      <text x="-2142.5117" font-size="16px" y="-443.6484" clip-path="url(#clipPath2)" font-family="'Tahoma'" stroke="none" stroke-width="1" xml:space="preserve">PrintService</text>
    </g>
    <g fill="rgb(0,102,0)" text-rendering="geometricPrecision" shape-rendering="geometricPrecision" transform="matrix(1,0,0,1,2547,559)" stroke="rgb(0,102,0)">
      <rect x="-2302.3477" y="-544" clip-path="url(#clipPath2)" width="130.3438" rx="4" ry="4" height="36" stroke="none"/>
    </g>
    <g stroke-linecap="butt" transform="matrix(1,0,0,1,2547,559)" fill="rgb(204,204,204)" text-rendering="geometricPrecision" shape-rendering="geometricPrecision" stroke="rgb(204,204,204)" stroke-width="2" stroke-miterlimit="1.45">
      <rect x="-2302.3477" y="-544" clip-path="url(#clipPath2)" fill="none" width="130.3438" rx="4" ry="4" height="36"/>
      <text x="-2290.3477" font-size="16px" y="-519.6484" clip-path="url(#clipPath2)" font-family="'Tahoma'" stroke="none" stroke-width="1" xml:space="preserve">CmdRepository</text>
    </g>
    <g fill="rgb(0,102,0)" text-rendering="geometricPrecision" shape-rendering="geometricPrecision" transform="matrix(1,0,0,1,2547,559)" stroke="rgb(0,102,0)">
      <rect x="-2007.4648" y="-468" clip-path="url(#clipPath2)" width="134.9219" rx="4" ry="4" height="36" stroke="none"/>
    </g>
    <g stroke-linecap="butt" transform="matrix(1,0,0,1,2547,559)" fill="rgb(204,204,204)" text-rendering="geometricPrecision" shape-rendering="geometricPrecision" stroke="rgb(204,204,204)" stroke-width="2" stroke-miterlimit="1.45">
      <rect x="-2007.4648" y="-468" clip-path="url(#clipPath2)" fill="none" width="134.9219" rx="4" ry="4" height="36"/>
      <text x="-1995.4648" font-size="16px" y="-443.6484" clip-path="url(#clipPath2)" font-family="'Tahoma'" stroke="none" stroke-width="1" xml:space="preserve">HeadRepository</text>
    </g>
    <g fill="rgb(153,51,0)" text-rendering="geometricPrecision" shape-rendering="geometricPrecision" transform="matrix(1,0,0,1,2547,559)" stroke="rgb(153,51,0)">
      <rect x="-2302.3477" y="-316" clip-path="url(#clipPath2)" width="91.6484" rx="4" ry="4" height="36" stroke="none"/>
    </g>
    <g stroke-linecap="butt" transform="matrix(1,0,0,1,2547,559)" fill="rgb(204,204,204)" text-rendering="geometricPrecision" shape-rendering="geometricPrecision" stroke="rgb(204,204,204)" stroke-width="2" stroke-miterlimit="1.45">
      <rect x="-2302.3477" y="-316" clip-path="url(#clipPath2)" fill="none" width="91.6484" rx="4" ry="4" height="36"/>
      <text x="-2290.3477" font-size="16px" y="-291.6484" clip-path="url(#clipPath2)" font-family="'Tahoma'" stroke="none" stroke-width="1" xml:space="preserve">resources</text>
    </g>
    <g fill="rgb(102,0,51)" text-rendering="geometricPrecision" shape-rendering="geometricPrecision" transform="matrix(1,0,0,1,2547,559)" stroke="rgb(102,0,51)">
      <rect x="-2531.3789" y="-220" clip-path="url(#clipPath2)" width="100.9922" rx="4" ry="4" height="36" stroke="none"/>
    </g>
    <g stroke-linecap="butt" transform="matrix(1,0,0,1,2547,559)" fill="rgb(204,204,204)" text-rendering="geometricPrecision" shape-rendering="geometricPrecision" stroke="rgb(204,204,204)" stroke-width="2" stroke-miterlimit="1.45">
      <rect x="-2531.3789" y="-220" clip-path="url(#clipPath2)" fill="none" width="100.9922" rx="4" ry="4" height="36"/>
      <text x="-2519.3789" font-size="16px" y="-195.6484" clip-path="url(#clipPath2)" font-family="'Tahoma'" stroke="none" stroke-width="1" xml:space="preserve">Application</text>
    </g>
    <g fill="rgb(0,51,102)" text-rendering="geometricPrecision" shape-rendering="geometricPrecision" transform="matrix(1,0,0,1,2547,559)" stroke="rgb(0,51,102)">
      <rect x="-2420.3867" y="-220" clip-path="url(#clipPath2)" width="74.5312" rx="4" ry="4" height="36" stroke="none"/>
    </g>
    <g stroke-linecap="butt" transform="matrix(1,0,0,1,2547,559)" fill="rgb(204,204,204)" text-rendering="geometricPrecision" shape-rendering="geometricPrecision" stroke="rgb(204,204,204)" stroke-width="2" stroke-miterlimit="1.45">
      <rect x="-2420.3867" y="-220" clip-path="url(#clipPath2)" fill="none" width="74.5312" rx="4" ry="4" height="36"/>
      <text x="-2408.3867" font-size="16px" y="-195.6484" clip-path="url(#clipPath2)" font-family="'Tahoma'" stroke="none" stroke-width="1" xml:space="preserve">Service</text>
    </g>
    <g fill="rgb(0,51,102)" text-rendering="geometricPrecision" shape-rendering="geometricPrecision" transform="matrix(1,0,0,1,2547,559)" stroke="rgb(0,51,102)">
      <rect x="-2531.3789" y="-392" clip-path="url(#clipPath2)" width="112.5391" rx="4" ry="4" height="36" stroke="none"/>
    </g>
    <g stroke-linecap="butt" transform="matrix(1,0,0,1,2547,559)" fill="rgb(204,204,204)" text-rendering="geometricPrecision" shape-rendering="geometricPrecision" stroke="rgb(204,204,204)" stroke-width="2" stroke-miterlimit="1.45">
      <rect x="-2531.3789" y="-392" clip-path="url(#clipPath2)" fill="none" width="112.5391" rx="4" ry="4" height="36"/>
      <text x="-2519.3789" font-size="16px" y="-367.6484" clip-path="url(#clipPath2)" font-family="'Tahoma'" stroke="none" stroke-width="1" xml:space="preserve">InputService</text>
      <path fill="none" d="M-2302.3928 -450 L-2333.3464 -450" clip-path="url(#clipPath2)"/>
      <path d="M-2342.3464 -450 L-2328.8464 -444.375 L-2332.2214 -450 L-2328.8464 -455.625 Z" clip-path="url(#clipPath2)" stroke="none"/>
      <path fill="none" d="M-2269.7297 -391.9826 L-2269.7297 -422.982" clip-path="url(#clipPath2)"/>
      <path d="M-2269.7297 -431.982 L-2275.3547 -418.482 L-2269.7297 -421.857 L-2264.1047 -418.482 Z" clip-path="url(#clipPath2)" stroke="none"/>
      <path fill="none" d="M-2130.842 -374 L-2161.8301 -374" clip-path="url(#clipPath2)"/>
      <path d="M-2170.8301 -374 L-2157.3301 -368.375 L-2160.7051 -374 L-2157.3301 -379.625 Z" clip-path="url(#clipPath2)" stroke="none"/>
      <path fill="none" d="M-2100.9883 -432.002 L-2100.9883 -412 L-2248.4297 -412 L-2248.4297 -423.002" clip-path="url(#clipPath2)"/>
      <path d="M-2248.4297 -432.002 L-2254.0547 -418.502 L-2248.4297 -421.877 L-2242.8047 -418.502 Z" clip-path="url(#clipPath2)" stroke="none"/>
      <path fill="none" d="M-2171.9827 -525.7992 L-2100.9883 -525.7992 L-2100.9883 -477.0245" clip-path="url(#clipPath2)"/>
      <path d="M-2100.9883 -468.0245 L-2095.3633 -481.5245 L-2100.9883 -478.1495 L-2106.6133 -481.5245 Z" clip-path="url(#clipPath2)" stroke="none"/>
      <path fill="none" d="M-2248.686 -508.002 L-2248.5491 -476.9839" clip-path="url(#clipPath2)"/>
      <path d="M-2248.5093 -467.984 L-2242.9441 -481.5088 L-2248.554 -478.1089 L-2254.1938 -481.459 Z" clip-path="url(#clipPath2)" stroke="none"/>
      <path fill="none" d="M-1940.0039 -432.002 L-1940.0039 -412 L-2227.2466 -412 L-2227.2466 -400.995" clip-path="url(#clipPath2)"/>
      <path d="M-2227.2466 -391.995 L-2221.6216 -405.495 L-2227.2466 -402.12 L-2232.8716 -405.495 Z" clip-path="url(#clipPath2)" stroke="none"/>
      <path fill="none" d="M-2007.4868 -450 L-2038.4349 -450" clip-path="url(#clipPath2)"/>
      <path d="M-2047.4349 -450 L-2033.9349 -444.375 L-2037.3099 -450 L-2033.9349 -455.625 Z" clip-path="url(#clipPath2)" stroke="none"/>
      <path fill="none" d="M-2256.5234 -315.9939 L-2256.5234 -346.9748" clip-path="url(#clipPath2)"/>
      <path d="M-2256.5234 -355.9748 L-2262.1484 -342.4748 L-2256.5234 -345.8498 L-2250.8984 -342.4748 Z" clip-path="url(#clipPath2)" stroke="none"/>
      <path fill="none" d="M-2418.8259 -374 L-2311.3875 -374" clip-path="url(#clipPath2)"/>
      <path d="M-2302.3875 -374 L-2315.8875 -379.625 L-2312.5125 -374 L-2315.8875 -368.375 Z" clip-path="url(#clipPath2)" stroke="none"/>
      <path fill="none" d="M-2476.4517 -391.9955 L-2476.4517 -412 L-2269.9363 -412 L-2269.7251 -412.6516" clip-path="url(#clipPath2)"/>
    </g>
  </g>
</svg>
